<svg xmlns="http://www.w3.org/2000/svg" xmlns:xlink="http://www.w3.org/1999/xlink" version="1.1" x="0px" y="0px" viewBox="0 0 512 640" enable-background="new 0 0 512 512" fill='#fff' xml:space="preserve"><g><path d="M208.972,387.775c8.567,0,15.538-6.952,15.538-15.5c0-8.559-6.97-15.521-15.538-15.521   c-8.546,0-15.499,6.963-15.499,15.521C193.473,380.823,200.426,387.775,208.972,387.775z M208.972,362.754   c5.259,0,9.538,4.271,9.538,9.521c0,5.238-4.279,9.5-9.538,9.5c-5.238,0-9.499-4.262-9.499-9.5   C199.473,367.025,203.734,362.754,208.972,362.754z"/><path d="M276.402,491.504h-134.82c-1.657,0-3,1.343-3,3s1.343,3,3,3h134.82c1.656,0,3-1.343,3-3S278.061,491.504,276.402,491.504z"/><path d="M159.786,125.292h45.457c1.657,0,3-1.343,3-3V75.399c0-1.657-1.343-3-3-3h-45.457c-1.657,0-3,1.343-3,3v46.893   C156.786,123.949,158.129,125.292,159.786,125.292z M162.786,78.399h39.457v40.893h-39.457V78.399z"/><path d="M230.593,119.8h45.462c1.657,0,3-1.343,3-3V80.913c0-1.657-1.343-3-3-3h-45.462c-1.657,0-3,1.343-3,3V116.8   C227.593,118.457,228.936,119.8,230.593,119.8z M233.593,83.913h39.462V113.8h-39.462V83.913z"/><path d="M276.286,139.867H160.481c-1.657,0-3,1.343-3,3v30.148c0,1.657,1.343,3,3,3h115.805c1.657,0,3-1.343,3-3v-30.148   C279.286,141.21,277.943,139.867,276.286,139.867z M273.286,170.015H163.481v-24.148h109.805V170.015z"/><path d="M218.05,206.619c-5.419,0-9.829,4.411-9.829,9.833c0,5.41,4.409,9.812,9.829,9.812c5.403,0,9.799-4.402,9.799-9.812   C227.849,211.03,223.453,206.619,218.05,206.619z M218.05,220.264c-2.111,0-3.829-1.71-3.829-3.812   c0-2.114,1.717-3.833,3.829-3.833c2.095,0,3.799,1.719,3.799,3.833C221.849,218.554,220.145,220.264,218.05,220.264z"/><path d="M239.598,29.695h-43.091c-1.657,0-3,1.343-3,3c0,1.657,1.343,3,3,3h43.091c1.657,0,3-1.343,3-3   C242.598,31.038,241.255,29.695,239.598,29.695z"/><path d="M475.586,232.65h-91.061v-81.552c0-8.589-6.973-15.577-15.538-15.577h-67.069V17.5c0-1.657-1.343-3-3-3H137.193   c-1.657,0-3,1.343-3,3v118.021H48.989c-8.587,0-15.573,6.988-15.573,15.577v235.406c0,8.587,6.986,15.572,15.573,15.572h121.333   l-5.804,36.574h-24.53c-1.657,0-3,1.343-3,3v18.89h-40.05c-1.657,0-3,1.343-3,3s1.343,3,3,3h43.051h138.007h43.047   c1.657,0,3-1.343,3-3s-1.343-3-3-3h-40.047v-18.89c0-1.657-1.344-3-3-3h-24.539l-5.801-36.574h88.399v46.979c0,1.657,1.345,3,3,3   h136.529c1.657,0,3-1.343,3-3V235.65C478.586,233.993,477.243,232.65,475.586,232.65z M140.193,20.5h155.725v23.674H140.193V20.5z    M140.193,138.521V50.174h155.725v88.347v59.714H140.193V138.521z M140.193,204.235h155.725v23.679H140.193V204.235z    M250.895,444.65c0.007,0,0.014,0,0.02,0h24.081v15.89H142.989v-15.89h24.091H250.895z M170.594,438.65l5.804-36.574h65.184   l5.8,36.574H170.594z M336.056,396.076h-91.913h-70.307H48.989c-5.278,0-9.573-4.294-9.573-9.572v-38.055h296.64V396.076z    M336.055,235.65v106.799H39.416V151.098c0-5.281,4.294-9.577,9.573-9.577h85.204v89.393v0.001c0,1.657,1.343,3,3,3h161.725   c1.657,0,3-1.343,3-3v-0.001v-89.393h67.069c5.26,0,9.538,4.296,9.538,9.577v81.552h-39.471   C337.399,232.65,336.055,233.993,336.055,235.65z M472.586,446.056H342.057v-33.282h130.529V446.056z M472.586,406.773H342.057   v-128.84h130.529V406.773z M472.588,271.934L472.588,271.934H342.057V238.65h39.471h91.061V271.934z"/><path d="M389.137,258.288h36.378c1.657,0,3-1.343,3-3s-1.343-3-3-3h-36.378c-1.655,0-3,1.343-3,3S387.479,258.288,389.137,258.288z   "/><path d="M407.345,440.903c6.259,0,11.353-5.109,11.353-11.391c-0.001-6.266-5.094-11.364-11.353-11.364   c-6.277,0-11.388,5.1-11.388,11.364C395.957,435.793,401.065,440.903,407.345,440.903z M407.345,424.149   c2.95,0,5.353,2.405,5.353,5.363c-0.001,2.974-2.401,5.391-5.353,5.391c-2.971,0-5.388-2.417-5.388-5.391   C401.957,426.556,404.374,424.149,407.345,424.149z"/></g><text x="0" y="527" fill="#000000" font-size="5px" font-weight="bold" font-family="'Helvetica Neue', Helvetica, Arial-Unicode, Arial, Sans-serif">Created by ibrandify</text><text x="0" y="532" fill="#000000" font-size="5px" font-weight="bold" font-family="'Helvetica Neue', Helvetica, Arial-Unicode, Arial, Sans-serif">from the Noun Project</text> </svg>